<?xml version="1.0" standalone="no"?>
<svg xmlns="http://www.w3.org/2000/svg" viewBox="0 0 139.132 29" width="139.132" height="29"><g fill="#72edca" color="#72edca" transform="translate(0, 0) scale(0.5686275)"><svg width="44.0" height="51.0" x="0.0" y="0.0" viewBox="0 0 44 51"><path fill="currentColor" fill-rule="evenodd" d="M22 0L0 12.571v25.143l22 12.572 21.994-12.568.006-.01V12.571L22 0zM6.354 13.778L22 4.84l15.645 8.938-4.231 2.419L22 9.678l-11.411 6.52-4.235-2.42zm17.764 10.158v-8.21L31.3 19.83v8.208l-7.182-4.101zm-11.416-4.107l7.18-4.102v8.207l-7.18 4.103v-8.208zm11.416 19.57l11.415-6.522V19.826l4.233-2.42v17.89l-15.648 8.941v-4.838zM4.233 35.296v-17.89l4.233 2.42v13.049l11.416 6.524v4.838l-15.649-8.94zm10.583-3.63l7.182-4.104 7.183 4.104L22 35.768l-7.184-4.102z"></path></svg></g><line x1="37.02" y1="1" x2="37.02" y2="28" stroke="#0019ff" stroke-linecap="round"></line><path fill="#0019ff" fill-rule="nonzero" d="M7.85 16.97L0.10 16.97Q0 16.97 0 16.85L0 16.85L0.02 0.38Q0.02 0.26 0.14 0.26L0.14 0.26L2.81 0.26Q2.93 0.26 2.93 0.38L2.93 0.38L2.90 14.02L7.85 14.02Q7.97 14.02 7.97 14.14L7.97 14.14L7.97 16.85Q7.97 16.97 7.85 16.97L7.85 16.97ZM13.63 17.21L13.63 17.21Q12.34 17.21 11.27 16.55Q10.20 15.89 9.55 14.80Q8.90 13.70 8.90 12.38L8.90 12.38L8.93 4.78Q8.93 3.46 9.56 2.38Q10.20 1.30 11.28 0.65Q12.36 0 13.63 0L13.63 0Q14.93 0 15.98 0.65Q17.04 1.30 17.68 2.38Q18.31 3.46 18.31 4.78L18.31 4.78L18.34 12.38Q18.34 13.70 17.70 14.80Q17.06 15.89 16.00 16.55Q14.93 17.21 13.63 17.21ZM13.63 14.30L13.63 14.30Q14.35 14.30 14.89 13.72Q15.43 13.13 15.43 12.38L15.43 12.38L15.41 4.78Q15.41 3.98 14.90 3.43Q14.40 2.88 13.63 2.88L13.63 2.88Q12.89 2.88 12.36 3.42Q11.83 3.96 11.83 4.78L11.83 4.78L11.83 12.38Q11.83 13.18 12.36 13.74Q12.89 14.30 13.63 14.30ZM24.55 17.21L24.55 17.21Q23.26 17.21 22.20 16.56Q21.14 15.91 20.51 14.82Q19.87 13.73 19.87 12.38L19.87 12.38L19.87 4.78Q19.87 3.48 20.51 2.39Q21.14 1.30 22.21 0.65Q23.28 0 24.55 0L24.55 0Q25.87 0 26.94 0.64Q28.01 1.27 28.63 2.35Q29.26 3.43 29.26 4.78L29.26 4.78L29.26 5.88Q29.26 5.98 29.14 5.98L29.14 5.98L26.45 5.98Q26.35 5.98 26.35 5.88L26.35 5.88L26.35 4.97Q26.35 4.06 25.84 3.46Q25.32 2.86 24.55 2.86L24.55 2.86Q23.86 2.86 23.32 3.43Q22.78 4.01 22.78 4.78L22.78 4.78L22.78 12.38Q22.78 13.18 23.30 13.74Q23.83 14.30 24.55 14.30L24.55 14.30Q25.32 14.30 25.84 13.75Q26.35 13.20 26.35 12.38L26.35 12.38L26.35 11.21L24.67 11.21Q24.55 11.21 24.55 11.09L24.55 11.09L24.55 8.40Q24.55 8.28 24.67 8.28L24.67 8.28L29.16 8.28Q29.26 8.28 29.26 8.40L29.26 8.40L29.26 12.38Q29.26 13.73 28.62 14.82Q27.98 15.91 26.93 16.56Q25.87 17.21 24.55 17.21ZM38.81 16.97L31.06 16.97Q30.96 16.97 30.96 16.85L30.96 16.85L30.98 0.38Q30.98 0.26 31.10 0.26L31.10 0.26L33.77 0.26Q33.89 0.26 33.89 0.38L33.89 0.38L33.86 14.02L38.81 14.02Q38.93 14.02 38.93 14.14L38.93 14.14L38.93 16.85Q38.93 16.97 38.81 16.97L38.81 16.97ZM44.59 17.21L44.59 17.21Q43.30 17.21 42.23 16.55Q41.16 15.89 40.51 14.80Q39.86 13.70 39.86 12.38L39.86 12.38L39.89 4.78Q39.89 3.46 40.52 2.38Q41.16 1.30 42.24 0.65Q43.32 0 44.59 0L44.59 0Q45.89 0 46.94 0.65Q48.00 1.30 48.64 2.38Q49.27 3.46 49.27 4.78L49.27 4.78L49.30 12.38Q49.30 13.70 48.66 14.80Q48.02 15.89 46.96 16.55Q45.89 17.21 44.59 17.21ZM44.59 14.30L44.59 14.30Q45.31 14.30 45.85 13.72Q46.39 13.13 46.39 12.38L46.39 12.38L46.37 4.78Q46.37 3.98 45.86 3.43Q45.36 2.88 44.59 2.88L44.59 2.88Q43.85 2.88 43.32 3.42Q42.79 3.96 42.79 4.78L42.79 4.78L42.79 12.38Q42.79 13.18 43.32 13.74Q43.85 14.30 44.59 14.30ZM49.87 16.85L49.87 16.85L52.85 0.36Q52.87 0.26 52.97 0.26L52.97 0.26L56.45 0.26Q56.54 0.26 56.57 0.36L56.57 0.36L59.42 16.85Q59.45 16.97 59.33 16.97L59.33 16.97L56.66 16.97Q56.57 16.97 56.54 16.85L56.54 16.85L56.28 15.10L53.02 15.10L52.75 16.85Q52.73 16.97 52.63 16.97L52.63 16.97L49.97 16.97Q49.87 16.97 49.87 16.85ZM54.58 5.78L53.50 12.53L55.80 12.53L54.82 5.78L54.67 4.90L54.58 5.78ZM65.35 16.94L61.06 16.97Q60.94 16.97 60.94 16.85L60.94 16.85L60.98 0.36Q60.98 0.26 61.08 0.26L61.08 0.26L65.57 0.24Q66.89 0.22 67.98 0.86Q69.07 1.51 69.72 2.60Q70.37 3.70 70.37 5.02L70.37 5.02L70.37 11.90Q70.37 13.30 69.70 14.44Q69.02 15.58 67.90 16.25Q66.77 16.92 65.35 16.94L65.35 16.94ZM63.89 3.14L63.86 14.02L65.35 14.02Q66.24 14.02 66.85 13.39Q67.46 12.77 67.46 11.90L67.46 11.90L67.46 4.99Q67.46 4.22 66.90 3.66Q66.34 3.10 65.57 3.12L65.57 3.12L63.89 3.14ZM80.11 16.97L72.36 16.97Q72.26 16.97 72.26 16.85L72.26 16.85L72.29 0.36Q72.29 0.26 72.38 0.26L72.38 0.26L80.09 0.26Q80.18 0.26 80.18 0.38L80.18 0.38L80.18 3.07Q80.18 3.17 80.09 3.17L80.09 3.17L75.17 3.17L75.17 6.91L80.09 6.91Q80.18 6.91 80.18 7.01L80.18 7.01L80.21 9.72Q80.21 9.82 80.11 9.82L80.11 9.82L75.17 9.82L75.17 14.02L80.11 14.02Q80.21 14.02 80.21 14.14L80.21 14.14L80.21 16.87Q80.21 16.97 80.11 16.97L80.11 16.97ZM85.15 16.97L82.44 16.97Q82.34 16.97 82.34 16.85L82.34 16.85L82.39 0.36Q82.39 0.26 82.49 0.26L82.49 0.26L87.34 0.26Q88.63 0.26 89.72 0.90Q90.82 1.54 91.46 2.60Q92.11 3.67 92.11 5.02L92.11 5.02Q92.11 5.90 91.85 6.61Q91.58 7.32 91.22 7.81Q90.86 8.30 90.58 8.54L90.58 8.54Q91.87 9.98 91.87 11.93L91.87 11.93L91.90 16.85Q91.90 16.97 91.78 16.97L91.78 16.97L89.06 16.97Q88.97 16.97 88.97 16.90L88.97 16.90L88.97 11.93Q88.97 11.06 88.36 10.43Q87.74 9.79 86.86 9.79L86.86 9.79L85.27 9.79L85.25 16.85Q85.25 16.97 85.15 16.97L85.15 16.97ZM85.27 3.14L85.27 6.91L87.34 6.91Q88.08 6.91 88.66 6.36Q89.23 5.81 89.23 5.02L89.23 5.02Q89.23 4.25 88.67 3.70Q88.10 3.14 87.34 3.14L87.34 3.14L85.27 3.14Z" transform="translate(47.02, 6.016)"></path></svg>